HIERARCHY
ROOT Hips
{
 OFFSET 0.000000 0.000000 0.000000
 CHANNELS 6 Xposition Yposition Zposition Yrotation Xrotation Zrotation
 JOINT Chest
 {
  OFFSET 0.000000 10.354800 0.006500
  CHANNELS 3 Yrotation Xrotation Zrotation
  JOINT Chest2
  {
   OFFSET 0.000000 10.435800 -0.013200
   CHANNELS 3 Yrotation Xrotation Zrotation
   JOINT Chest3
   {
    OFFSET 0.000000 10.393700 0.000000
    CHANNELS 3 Yrotation Xrotation Zrotation
    JOINT Chest4
    {
     OFFSET 0.000000 10.383100 0.000000
     CHANNELS 3 Yrotation Xrotation Zrotation
     JOINT Neck
     {
      OFFSET 0.000000 15.694000 0.000000
      CHANNELS 3 Yrotation Xrotation Zrotation
      JOINT Head
      {
       OFFSET 0.000000 9.711000 -0.028000
       CHANNELS 3 Yrotation Xrotation Zrotation
       End Site
       {
        OFFSET 0.000000 18.578700 -0.014800
       }
      }
     }
     JOINT RightCollar
     {
      OFFSET -3.157200 10.367500 0.000000
      CHANNELS 3 Yrotation Xrotation Zrotation
      JOINT RightShoulder
      {
       OFFSET -14.482500 0.000000 0.000000
       CHANNELS 3 Yrotation Xrotation Zrotation
       JOINT RightElbow
       {
        OFFSET 0.000000 -31.707800 0.000000
        CHANNELS 3 Yrotation Xrotation Zrotation
        JOINT RightWrist
        {
         OFFSET 0.000000 -25.659300 0.000000
         CHANNELS 3 Yrotation Xrotation Zrotation
         End Site
         {
          OFFSET 0.000000 -18.994300 0.000000
         }
        }
       }
      }
     }
     JOINT LeftCollar
     {
      OFFSET 3.157200 10.367500 0.000000
      CHANNELS 3 Yrotation Xrotation Zrotation
      JOINT LeftShoulder
      {
       OFFSET 14.482500 0.000000 0.000000
       CHANNELS 3 Yrotation Xrotation Zrotation
       JOINT LeftElbow
       {
        OFFSET 0.000000 -31.707800 0.000000
        CHANNELS 3 Yrotation Xrotation Zrotation
        JOINT LeftWrist
        {
         OFFSET 0.000000 -25.659300 0.000000
         CHANNELS 3 Yrotation Xrotation Zrotation
         End Site
         {
          OFFSET 0.000000 -18.994300 0.000000
         }
        }
       }
      }
     }
    }
   }
  }
 }
 JOINT RightHip
 {
  OFFSET -8.365600 -0.032100 -0.003200
  CHANNELS 3 Yrotation Xrotation Zrotation
  JOINT RightKnee
  {
   OFFSET 0.000000 -43.980000 0.003100
   CHANNELS 3 Yrotation Xrotation Zrotation
   JOINT RightAnkle
   {
    OFFSET 0.000000 -42.882800 0.005200
    CHANNELS 3 Yrotation Xrotation Zrotation
    JOINT RightToe
    {
     OFFSET 0.000000 -4.915500 10.826300
     CHANNELS 3 Yrotation Xrotation Zrotation
     End Site
     {
      OFFSET 0.000000 -1.517500 6.175900
     }
    }
   }
  }
 }
 JOINT LeftHip
 {
  OFFSET 8.365600 -0.032100 -0.003200
  CHANNELS 3 Yrotation Xrotation Zrotation
  JOINT LeftKnee
  {
   OFFSET 0.000000 -43.980000 0.003100
   CHANNELS 3 Yrotation Xrotation Zrotation
   JOINT LeftAnkle
   {
    OFFSET 0.000000 -42.882800 0.005200
    CHANNELS 3 Yrotation Xrotation Zrotation
    JOINT LeftToe
    {
     OFFSET 0.000000 -4.915500 10.826300
     CHANNELS 3 Yrotation Xrotation Zrotation
     End Site
     {
      OFFSET 0.000000 -1.517500 6.175900
     }
    }
   }
  }
 }
}
MOTION
Frames: 12
Frame Time: 0.008333
0.000000 91.618600 0.000000 0.000000 -5.767877 0.000000 0.000000 11.653817 0.000000 0.000000 -5.885947 0.000000 0.000000 -0.000000 0.000000 0.000000 -0.000000 0.000000 0.000000 12.528835 0.000000 0.000000 0.711642 0.000000 0.000000 -0.000000 0.000000 0.000000 0.000000 -90.000000 0.000000 -2.309062 0.000000 0.000000 2.309062 0.000000 0.000000 -0.000000 0.000000 0.000000 -0.000000 90.000000 0.000000 -2.309062 0.000000 0.000000 2.309062 0.000000 0.000000 8.520406 0.000000 0.000000 1.905762 0.000000 -0.000000 -4.658285 0.000000 0.000000 -0.000000 0.000000 0.000000 8.520406 0.000000 0.000000 1.905762 0.000000 -0.000000 -4.658285 0.000000 0.000000 -0.000000 0.000000
-10.365127 126.463744 21.150412 177.948777 -19.677980 -5.862428 -1.206746 12.905445 2.056248 -0.104463 1.030629 0.163713 -0.178823 1.746381 0.282676 -1.100046 11.683337 1.864304 2.853365 19.703547 -8.756951 5.195173 -4.301803 -10.349417 3.677107 4.963324 -3.742472 2.778832 -7.597813 -3.532235 -99.257671 -57.009731 130.820704 -21.066612 -5.040378 -25.185212 -3.297870 8.326074 -1.098050 15.325706 -12.357761 -4.714656 104.623153 -61.609941 -128.911598 22.413779 8.903547 20.672322 6.607034 -62.098822 3.332670 -110.754744 79.487543 -104.853843 2.597109 -13.602213 -13.288010 -0.011173 0.003484 -0.005073 -23.182569 -61.882893 16.031277 92.017901 81.839513 86.835354 -10.288912 -8.554121 0.886060 0.000251 -0.005638 0.000114
-10.366524 126.458670 21.155205 177.949440 -19.597897 -5.855590 -1.199425 12.841299 2.040061 -0.078884 1.049237 0.133288 -0.200629 1.723819 0.308884 -1.062698 11.679845 1.816378 2.490182 19.646303 -8.652591 4.762215 -4.400443 -10.129717 3.648702 4.969138 -3.789100 2.791572 -7.765256 -3.655754 -99.212572 -57.137700 130.704955 -21.035690 -4.663816 -24.443529 -3.342358 8.448037 -1.125032 15.377645 -12.797307 -4.678207 104.741269 -61.943538 -128.552664 21.940771 9.258115 18.769629 6.618414 -62.182951 3.317834 -110.778734 79.490806 -104.881425 2.588267 -13.630052 -13.288957 -0.008262 0.002440 -0.003751 -23.305605 -61.946924 16.133577 91.978077 81.832672 86.774630 -10.283861 -8.554780 0.877770 -0.003836 -0.001313 -0.001742
-10.366081 126.455678 21.153338 177.952877 -19.550008 -5.860848 -1.142016 12.849211 1.984991 -0.106119 1.015046 0.166178 -0.187666 1.723016 0.293767 -1.046324 11.656976 1.802719 2.108283 19.593303 -8.530261 4.305671 -4.494976 -9.885566 3.614510 4.976456 -3.839154 2.853834 -7.955824 -3.802730 -99.106086 -57.292341 130.497085 -20.985205 -4.323415 -23.736966 -3.385813 8.536465 -1.109247 15.430254 -13.228562 -4.661325 104.769498 -62.321245 -128.010443 21.392609 9.636096 16.720483 6.598979 -62.237757 3.340670 -110.791538 79.482987 -104.898374 2.582387 -13.632659 -13.292423 -0.005872 -0.000157 -0.002666 -23.424657 -61.975968 16.231062 91.916239 81.824288 86.700717 -10.274500 -8.552125 0.860334 -0.002725 -0.000105 -0.001237
-10.365149 126.452787 21.150552 177.957792 -19.503137 -5.872147 -1.117696 12.825458 1.961895 -0.103727 1.010416 0.163286 -0.174765 1.719622 0.276868 -1.030894 11.632387 1.789347 1.714716 19.546870 -8.391784 3.834092 -4.581900 -9.621206 3.569084 4.991023 -3.892310 2.973927 -8.183040 -3.976416 -98.947448 -57.486091 130.188475 -20.915194 -4.015515 -23.057704 -3.424427 8.583816 -1.047335 15.470788 -13.650370 -4.656697 104.665357 -62.724381 -127.262249 20.779605 10.028513 14.590972 6.568255 -62.289842 3.378823 -110.794891 79.475235 -104.907881 2.573057 -13.635835 -13.294164 -0.003985 -0.001505 -0.001809 -23.502289 -62.011048 16.299125 91.859769 81.822069 86.660389 -10.268433 -8.549830 0.843015 0.001903 -0.000223 0.000864
-10.366059 126.449704 21.147477 177.962337 -19.456218 -5.876505 -1.095450 12.799470 1.931976 -0.116588 0.997752 0.181834 -0.156360 1.719572 0.250156 -1.020231 11.614171 1.781424 1.320237 19.506772 -8.264105 3.357902 -4.657325 -9.344755 3.520337 5.010940 -3.972457 3.146548 -8.461302 -4.176678 -98.726575 -57.729058 129.757854 -20.825653 -3.730967 -22.374606 -3.456223 8.631274 -1.004479 15.492735 -14.130103 -4.625986 104.336211 -63.095980 -126.259802 20.136705 10.417904 12.495137 6.553151 -62.339354 3.409718 -110.749402 79.455900 -104.883287 2.566533 -13.636309 -13.280747 -0.004371 -0.000203 -0.001985 -23.618775 -62.036931 16.394803 91.766649 81.815568 86.554381 -10.264277 -8.543659 0.826578 0.003350 0.002227 0.001521
-10.367367 126.446929 21.143753 177.967623 -19.415122 -5.882460 -1.088391 12.768971 1.920407 -0.115406 0.995939 0.179958 -0.141723 1.717288 0.224639 -1.028156 11.605019 1.811375 0.934100 19.470495 -8.173813 2.889733 -4.717922 -9.067093 3.476428 5.026997 -4.102046 3.357561 -8.794979 -4.401532 -98.401411 -58.016047 129.168620 -20.712724 -3.450785 -21.637472 -3.495629 8.689877 -1.024156 15.514221 -14.695730 -4.548313 103.689828 -63.378653 -124.933302 19.531696 10.783745 10.557698 6.545882 -62.379994 3.425767 -110.728039 79.444412 -104.868968 2.566799 -13.640655 -13.277240 -0.004346 0.001841 -0.001973 -23.795873 -62.047868 16.547022 91.729623 81.808067 86.464738 -10.255331 -8.539766 0.817507 0.002519 0.004298 0.001144
-10.367055 126.444540 21.140343 177.971388 -19.378031 -5.900664 -1.076674 12.741862 1.922161 -0.099273 1.001023 0.157512 -0.151800 1.705077 0.221010 -0.997125 11.589347 1.784956 0.547106 19.452509 -8.013164 2.442191 -4.761275 -8.797979 3.394803 5.037896 -4.169615 3.594561 -9.178805 -4.650925 -97.910671 -58.321360 128.381256 -20.563004 -3.157034 -20.822826 -3.630730 8.737421 -1.026839 15.579123 -15.314893 -4.391302 102.662248 -63.547740 -123.217111 19.059597 11.108398 8.904829 6.517884 -62.416473 3.473598 -110.679062 79.425207 -104.822120 2.567725 -13.643709 -13.279928 -0.000174 0.002460 -0.000079 -23.921145 -62.065651 16.661964 91.661844 81.814545 86.394194 -10.266656 -8.532063 0.797240 0.005333 0.002944 0.002421
-10.368007 126.442578 21.136504 177.965263 -19.351113 -5.912038 -1.052164 12.733684 1.862116 -0.096427 0.993454 0.153113 -0.160859 1.693373 0.270266 -0.973072 11.557400 1.702597 0.199990 19.464450 -7.808358 2.025216 -4.785674 -8.543779 3.321193 5.050372 -4.188733 3.857004 -9.610220 -4.925022 -97.192280 -58.600354 127.368413 -20.374885 -2.835310 -19.967481 -3.730427 8.787765 -0.963482 15.604837 -15.983555 -4.213640 101.234963 -63.595004 -121.100182 18.824555 11.382891 7.661147 6.504190 -62.443869 3.517481 -110.636348 79.417307 -104.791713 2.560741 -13.645985 -13.274639 -0.000263 0.003346 -0.000119 -24.017410 -62.077311 16.760190 91.669288 81.816906 86.381823 -10.263648 -8.531098 0.799579 0.002462 0.001261 0.001118
-10.370105 126.440900 21.132995 177.958335 -19.330575 -5.920156 -1.049315 12.715147 1.836189 -0.095895 0.990101 0.151112 -0.159983 1.687917 0.266824 -0.968994 11.537160 1.666470 -0.115206 19.484580 -7.652662 1.644232 -4.788377 -8.307476 3.271051 5.048580 -4.242871 4.155611 -10.087756 -5.222211 -96.178927 -58.789834 126.100185 -20.195766 -2.481233 -19.152980 -3.803417 8.822662 -0.926767 15.592569 -16.717649 -4.012977 99.464303 -63.496495 -118.657067 18.893645 11.601144 6.907347 6.500666 -62.465034 3.554684 -110.588603 79.410894 -104.763397 2.547227 -13.645472 -13.255230 -0.003654 0.004676 -0.001659 -24.097559 -62.085272 16.845436 91.692646 81.817683 86.385203 -10.271593 -8.529898 0.798547 -0.000506 -0.000025 -0.000230
-10.372338 126.439688 21.129888 177.956056 -19.316800 -5.932139 -1.055424 12.697677 1.813819 -0.096091 0.986902 0.149294 -0.162022 1.681049 0.253261 -0.971481 11.523374 1.658229 -0.402641 19.518908 -7.522262 1.300276 -4.767217 -8.089279 3.237632 5.034993 -4.305412 4.495892 -10.598275 -5.546702 -94.787102 -58.795403 124.534677 -20.100272 -2.122752 -18.486121 -3.880851 8.851829 -0.901451 15.551079 -17.520312 -3.790593 97.416962 -63.204761 -115.983526 19.245239 11.734059 6.656108 6.492142 -62.478384 3.592087 -110.550220 79.401031 -104.735832 2.540648 -13.646767 -13.243849 -0.003803 0.004706 -0.001727 -24.173198 -62.086341 16.925845 91.718574 81.814086 86.391718 -10.289517 -8.529348 0.799984 -0.002934 -0.000487 -0.001332
-10.373804 126.439032 21.127414 177.954786 -19.309595 -5.951435 -1.056992 12.687341 1.816517 -0.107303 0.976646 0.132250 -0.163208 1.675996 0.250784 -0.960924 11.527328 1.666357 -0.686667 19.551915 -7.418231 0.992486 -4.722362 -7.887357 3.203873 4.989932 -4.374270 4.878524 -11.126728 -5.910216 -92.948110 -58.511201 122.656245 -20.161710 -1.827722 -18.071665 -3.984945 8.849486 -0.891647 15.478969 -18.377273 -3.551430 95.089335 -62.668512 -113.107461 19.814885 11.716456 6.840803 6.471681 -62.482972 3.641840 -110.504792 79.390654 -104.695255 2.531881 -13.652190 -13.241667 -0.003491 0.004478 -0.001585 -24.231941 -62.081750 16.989881 91.752475 81.801222 86.411403 -10.259862 -8.537348 0.804229 -0.001827 -0.000851 -0.000829
